<svg version="1.1" id="Layer_1" xmlns="http://www.w3.org/2000/svg" xmlns:xlink="http://www.w3.org/1999/xlink" x="0px" y="0px"
	 width="100%" viewBox="0 0 600 200" enable-background="new 0 0 600 200" xml:space="preserve">
<path fill="#000000" opacity="1.000000" stroke="none" 
	d="
M401.000000,201.000000 
	C267.374939,201.000000 134.249878,201.000000 1.062411,201.000000 
	C1.062411,134.395828 1.062411,67.791565 1.062411,1.093656 
	C200.999985,1.093656 401.000000,1.093656 600.968750,1.093656 
	C600.968750,67.750046 600.968750,134.375031 600.968750,201.000000 
	C534.458313,201.000000 467.979156,201.000000 401.000000,201.000000 
M243.430847,46.065746 
	C243.275162,46.372643 243.119476,46.679543 242.244293,47.454422 
	C242.226288,63.626888 242.208298,79.799355 242.089783,96.509033 
	C242.393204,96.672623 242.696640,96.836212 242.978882,97.003006 
	C242.978882,97.003006 242.970566,97.022858 242.996246,97.906563 
	C242.992325,100.266357 242.988403,102.626144 242.989563,105.006439 
	C242.989563,105.006439 243.007889,105.016930 242.465118,105.084648 
	C242.371979,105.396873 242.278839,105.709099 242.022705,106.943314 
	C242.014557,118.604576 242.002136,130.265839 241.999390,141.927094 
	C241.996429,154.508453 242.000366,154.508453 255.923691,153.990311 
	C269.078400,153.994385 282.242340,153.693985 295.385040,154.092865 
	C307.222015,154.452133 323.574310,142.516251 324.615936,128.907104 
	C326.049103,110.182762 325.832306,91.218544 324.727722,72.450943 
	C323.903503,58.446129 309.580292,45.916889 294.944275,45.144085 
	C282.995789,44.513187 270.982300,45.112720 258.151062,45.015079 
	C256.435028,45.065563 254.718994,45.116047 252.132462,45.009415 
	C249.396118,45.320709 246.659790,45.632008 243.981598,46.004295 
	C243.981598,46.004295 243.950485,45.926075 243.430847,46.065746 
M406.348511,125.985565 
	C405.889374,126.039886 405.430206,126.094208 404.191162,126.013832 
	C403.139404,126.056915 402.087646,126.099991 400.134430,125.979988 
	C397.085846,126.034393 394.037292,126.088806 390.237213,126.020744 
	C387.475861,127.319237 384.714508,128.617722 381.290680,130.178802 
	C378.800537,131.661392 376.363007,133.242401 373.809937,134.607285 
	C367.317230,138.078293 365.577545,137.133652 364.183990,129.570724 
	C366.802917,128.070358 369.414459,126.574219 372.758453,124.986679 
	C375.549438,123.339760 378.340393,121.692848 381.855835,120.010559 
	C384.280823,118.700043 386.705780,117.389526 389.858429,115.991386 
	C395.943909,112.757462 402.029419,109.523537 407.942963,106.380981 
	C407.942963,105.586121 408.050171,105.207901 407.927673,104.931473 
	C398.504883,83.667793 373.524963,75.881218 353.722595,88.142609 
	C338.525330,97.552582 332.141205,119.712898 341.187469,134.589844 
	C341.774109,134.757370 342.360779,134.924896 342.974152,135.011505 
	C342.974152,135.011505 342.900818,135.054916 343.034912,135.765244 
	C348.070038,146.202454 357.049164,150.969757 368.225098,153.675888 
	C369.136902,153.719757 370.048676,153.763641 371.721344,153.957489 
	C372.493286,153.910751 373.265198,153.863998 374.851074,153.985596 
	C383.490906,152.775620 391.495453,150.084717 398.675262,143.773697 
	C400.485352,141.526779 402.295441,139.279846 404.753204,136.713943 
	C405.874573,133.493332 406.995941,130.272720 408.657318,126.827614 
	C408.114471,126.598946 407.571625,126.370277 406.348511,125.985565 
M516.952454,101.988243 
	C523.288635,101.940788 529.624878,101.893326 536.772583,101.988235 
	C539.134705,101.466850 541.587524,100.273788 543.838135,100.577812 
	C547.426025,101.062485 548.418213,99.064789 548.941956,96.505051 
	C549.854675,92.044762 547.473938,89.390434 540.503601,87.026405 
	C540.503601,87.026405 540.024231,87.145226 539.095581,86.987289 
	C531.122070,86.983437 523.123535,87.381493 515.180725,86.885727 
	C501.772522,86.048813 487.738342,99.839180 495.203705,116.742722 
	C497.976257,121.306923 501.605164,124.788322 507.397614,126.743927 
	C510.791107,127.160217 514.178101,127.857033 517.579407,127.935806 
	C525.230957,128.113022 532.890198,127.930641 540.544678,128.028549 
	C541.917358,128.046097 543.790894,128.282211 544.529724,129.169617 
	C545.614014,130.471985 546.885132,133.278870 546.304932,133.981277 
	C544.838684,135.756409 542.431946,137.724121 540.316895,137.824677 
	C531.516052,138.243057 522.681274,138.125122 513.864075,137.947968 
	C509.411774,137.858505 506.487396,139.850235 505.712402,143.940704 
	C504.880676,148.330429 508.021118,152.677795 512.597534,152.867111 
	C523.084961,153.300949 533.692993,153.885757 544.083984,152.800034 
	C556.773010,151.474228 563.245239,142.027710 561.994019,129.255569 
	C561.170288,120.847191 550.555176,111.436577 540.533813,111.908768 
	C531.069153,112.354729 521.566040,111.984093 511.775482,111.373581 
	C510.905334,111.222885 510.035187,111.072189 509.020233,110.163734 
	C507.004852,104.805878 508.952209,102.497360 516.952454,101.988243 
M30.294571,38.307228 
	C30.430746,38.422474 30.566919,38.537724 30.229099,39.195065 
	C25.810774,46.186218 25.867809,49.348862 30.438246,50.792297 
	C32.303562,42.943089 34.290329,40.709442 39.722458,40.395504 
	C40.935059,51.430950 42.371330,62.438557 49.020126,71.830032 
	C50.838799,74.398918 51.045780,76.356567 49.431816,79.274277 
	C41.550545,93.521965 34.044785,107.976860 26.247131,122.271698 
	C24.514618,125.447769 24.800583,127.252945 28.262098,128.762543 
	C31.828001,130.317673 35.370079,132.085770 38.575535,134.269989 
	C42.830017,137.168991 45.197746,136.084366 47.143330,131.628998 
	C48.893009,127.622238 51.153732,123.838631 53.240986,119.857506 
	C73.809807,130.773209 94.024132,141.500778 114.959343,152.610901 
	C118.420502,146.263718 121.600838,140.236526 124.977013,134.321136 
	C126.704369,131.294647 125.879860,129.395218 122.956055,127.991013 
	C119.636559,126.396767 116.330421,124.774696 112.485748,122.905762 
	C115.999512,116.058655 119.387840,109.291328 122.927666,102.604179 
	C126.505028,95.846123 130.406891,89.254143 133.806152,82.410370 
	C135.119370,79.766441 135.368637,77.309685 131.316788,75.492073 
	C123.669167,72.061409 116.466232,67.636787 109.090485,63.603313 
	C97.832024,57.446560 86.604637,51.232563 75.318581,45.126926 
	C71.882683,43.268143 68.958672,43.157070 66.782669,47.418293 
	C63.552792,53.743309 59.854725,59.829247 56.223564,66.251053 
	C48.950661,58.446011 45.675800,49.162991 42.509201,39.017445 
	C50.086918,39.066612 52.645267,44.158131 56.364540,48.674225 
	C56.812729,46.046116 57.031364,43.330376 56.319618,40.885483 
	C54.569946,34.875286 49.142876,36.122154 43.331654,35.797371 
	C53.455181,30.884184 59.996803,36.223785 66.798119,40.624542 
	C66.540298,32.917095 60.927376,28.763641 49.323948,26.914263 
	C54.048916,25.381126 58.773888,23.847990 65.048569,21.812010 
	C60.689766,20.642767 57.537479,18.860516 54.634323,19.201206 
	C47.149792,20.079535 42.144154,24.618996 40.803894,30.911959 
	C36.134476,28.463724 32.092773,25.444160 27.564404,24.209394 
	C22.464836,22.818882 17.393379,24.136839 14.678110,29.204483 
	C20.526335,29.553633 26.520180,29.911478 32.514027,30.269323 
	C32.479908,30.750008 32.445793,31.230692 32.411678,31.711376 
	C22.443588,31.478849 15.857965,39.931732 17.697132,48.784615 
	C21.510748,45.396160 25.719187,41.656898 30.294571,38.307228 
M181.452560,154.000000 
	C187.172348,152.356400 193.427628,151.688339 198.516281,148.894989 
	C217.377258,138.541550 223.162674,116.476479 210.899796,98.564323 
	C203.052322,87.101662 191.785095,81.128883 176.932175,82.871780 
	C156.099472,85.316360 144.901962,100.206955 144.219543,117.564186 
	C143.475769,136.482361 159.083313,153.883423 181.452560,154.000000 
M487.030029,95.845047 
	C488.300140,92.663773 489.570251,89.482491 490.904602,86.140228 
	C483.979187,86.140228 477.669800,86.140228 471.505981,86.140228 
	C468.336365,95.382988 465.243927,104.463554 462.107483,113.528885 
	C459.011230,122.478020 455.870483,131.411758 452.749237,140.352234 
	C452.181213,140.241089 451.613190,140.129944 451.045166,140.018784 
	C449.702759,137.645386 447.931396,135.414337 447.088684,132.875061 
	C442.234283,118.247887 437.648590,103.531525 432.798401,88.902878 
	C432.406158,87.719704 430.747925,86.201370 429.614136,86.146034 
	C423.865875,85.865509 418.096527,86.016846 411.970367,86.016846 
	C417.095428,100.656075 422.106934,114.731750 426.937042,128.869415 
	C429.310913,135.817719 431.373932,142.873138 433.524017,149.896484 
	C434.219971,152.169830 434.710724,154.102081 437.964233,154.023148 
	C447.116302,153.801102 456.279541,154.049500 465.432861,153.853271 
	C466.628387,153.827637 468.479004,152.522995 468.865356,151.408417 
	C473.896606,136.892731 478.735291,122.310074 483.580566,107.730339 
	C484.797516,104.068367 485.866089,100.357079 487.030029,95.845047 
z"/>
<path fill="#3BA1DE" opacity="1.000000" stroke="none" 
	d="
M29.927628,37.917637 
	C25.719187,41.656898 21.510748,45.396160 17.697132,48.784615 
	C15.857965,39.931732 22.443588,31.478849 32.411678,31.711376 
	C32.445793,31.230692 32.479908,30.750008 32.514027,30.269323 
	C26.520180,29.911478 20.526335,29.553633 14.678110,29.204483 
	C17.393379,24.136839 22.464836,22.818882 27.564404,24.209394 
	C32.092773,25.444160 36.134476,28.463724 40.803894,30.911959 
	C42.144154,24.618996 47.149792,20.079535 54.634323,19.201206 
	C57.537479,18.860516 60.689766,20.642767 65.048569,21.812010 
	C58.773888,23.847990 54.048916,25.381126 49.323948,26.914263 
	C60.927376,28.763641 66.540298,32.917095 66.798119,40.624542 
	C59.996803,36.223785 53.455181,30.884184 43.331654,35.797371 
	C49.142876,36.122154 54.569946,34.875286 56.319618,40.885483 
	C57.031364,43.330376 56.812729,46.046116 56.364540,48.674225 
	C52.645267,44.158131 50.086918,39.066612 42.509201,39.017445 
	C45.675800,49.162991 48.950661,58.446011 56.223564,66.251053 
	C59.854725,59.829247 63.552792,53.743309 66.782669,47.418293 
	C68.958672,43.157070 71.882683,43.268143 75.318581,45.126926 
	C86.604637,51.232563 97.832024,57.446560 109.090485,63.603313 
	C116.466232,67.636787 123.669167,72.061409 131.316788,75.492073 
	C135.368637,77.309685 135.119370,79.766441 133.806152,82.410370 
	C130.406891,89.254143 126.505028,95.846123 122.927666,102.604179 
	C119.387840,109.291328 115.999512,116.058655 112.485748,122.905762 
	C116.330421,124.774696 119.636559,126.396767 122.956055,127.991013 
	C125.879860,129.395218 126.704369,131.294647 124.977013,134.321136 
	C121.600838,140.236526 118.420502,146.263718 114.959343,152.610901 
	C94.024132,141.500778 73.809807,130.773209 53.240986,119.857506 
	C51.153732,123.838631 48.893009,127.622238 47.143330,131.628998 
	C45.197746,136.084366 42.830017,137.168991 38.575535,134.269989 
	C35.370079,132.085770 31.828001,130.317673 28.262098,128.762543 
	C24.800583,127.252945 24.514618,125.447769 26.247131,122.271698 
	C34.044785,107.976860 41.550545,93.521965 49.431816,79.274277 
	C51.045780,76.356567 50.838799,74.398918 49.020126,71.830032 
	C42.371330,62.438557 40.935059,51.430950 39.722458,40.395504 
	C34.290329,40.709442 32.303562,42.943089 30.438246,50.792297 
	C25.867809,49.348862 25.810774,46.186218 30.755489,38.704552 
	C33.076057,37.750053 34.870235,37.286072 36.664417,36.822090 
	C36.509098,36.362930 36.353775,35.903767 36.198456,35.444603 
	C34.108181,36.268948 32.017902,37.093292 29.927628,37.917637 
M82.043671,107.525894 
	C84.081535,108.554581 86.225182,109.419044 88.133728,110.648468 
	C91.416725,112.763252 93.259109,111.950562 94.966347,108.485428 
	C98.197884,101.926460 101.878181,95.589554 105.321861,89.133621 
	C106.465958,86.988777 106.475739,85.252190 103.828438,83.919289 
	C96.845406,80.403389 89.914215,76.772598 83.088837,72.961113 
	C80.163818,71.327690 78.401237,72.255913 77.059784,74.798935 
	C73.643448,81.275375 70.394073,87.840958 66.911713,94.281013 
	C65.306725,97.249168 65.731789,99.039062 68.915161,100.502205 
	C73.200905,102.472023 77.314163,104.817093 82.043671,107.525894 
z"/>
<path fill="#F9FAFB" opacity="1.000000" stroke="none" 
	d="
M258.997650,45.166710 
	C270.982300,45.112720 282.995789,44.513187 294.944275,45.144085 
	C309.580292,45.916889 323.903503,58.446129 324.727722,72.450943 
	C325.832306,91.218544 326.049103,110.182762 324.615936,128.907104 
	C323.574310,142.516251 307.222015,154.452133 295.385040,154.092865 
	C282.242340,153.693985 269.078400,153.994385 255.461411,153.477386 
	C255.319336,150.341248 255.685608,147.722656 255.948334,145.093704 
	C256.291138,141.663528 255.343704,137.161270 257.176636,135.079788 
	C259.137543,132.852966 263.685852,132.904526 267.563416,132.007751 
	C275.512421,132.153503 283.004944,132.173355 290.492584,132.374008 
	C298.820190,132.597214 303.988708,127.833260 303.999756,119.672646 
	C304.017334,106.720345 304.016785,93.768005 304.007355,80.815689 
	C304.000641,71.555550 299.433807,67.002365 290.191803,67.001419 
	C284.048065,67.000793 277.903046,66.931297 271.761475,67.046341 
	C270.206848,67.075462 268.663239,67.692307 266.661774,68.027412 
	C261.267517,68.858955 259.570160,66.997520 259.855408,61.850094 
	C260.161774,56.321793 259.331757,50.730511 258.997650,45.166710 
z"/>
<path fill="#3BA1DE" opacity="1.000000" stroke="none" 
	d="
M180.991638,154.000000 
	C159.083313,153.883423 143.475769,136.482361 144.219543,117.564186 
	C144.901962,100.206955 156.099472,85.316360 176.932175,82.871780 
	C191.785095,81.128883 203.052322,87.101662 210.899796,98.564323 
	C223.162674,116.476479 217.377258,138.541550 198.516281,148.894989 
	C193.427628,151.688339 187.172348,152.356400 180.991638,154.000000 
M194.999435,116.796654 
	C193.365402,107.850006 187.665100,103.880135 177.267761,105.075127 
	C170.898132,105.807190 166.711502,111.044518 166.085327,117.941238 
	C165.445053,124.993233 172.015503,131.906235 178.813751,132.000000 
	C189.747269,132.150803 194.961319,127.528610 194.999435,116.796654 
z"/>
<path fill="#FCFDFD" opacity="1.000000" stroke="none" 
	d="
M487.016449,96.256752 
	C485.866089,100.357079 484.797516,104.068367 483.580566,107.730339 
	C478.735291,122.310074 473.896606,136.892731 468.865356,151.408417 
	C468.479004,152.522995 466.628387,153.827637 465.432861,153.853271 
	C456.279541,154.049500 447.116302,153.801102 437.964233,154.023148 
	C434.710724,154.102081 434.219971,152.169830 433.524017,149.896484 
	C431.373932,142.873138 429.310913,135.817719 426.937042,128.869415 
	C422.106934,114.731750 417.095428,100.656075 411.970367,86.016846 
	C418.096527,86.016846 423.865875,85.865509 429.614136,86.146034 
	C430.747925,86.201370 432.406158,87.719704 432.798401,88.902878 
	C437.648590,103.531525 442.234283,118.247887 447.088684,132.875061 
	C447.931396,135.414337 449.702759,137.645386 451.045166,140.018784 
	C451.613190,140.129944 452.181213,140.241089 452.749237,140.352234 
	C455.870483,131.411758 459.011230,122.478020 462.107483,113.528885 
	C465.243927,104.463554 468.336365,95.382988 471.505981,86.140228 
	C477.669800,86.140228 483.979187,86.140228 490.904602,86.140228 
	C489.570251,89.482491 488.300140,92.663773 487.016449,96.256752 
z"/>
<path fill="#FAFCFC" opacity="1.000000" stroke="none" 
	d="
M341.196533,133.967407 
	C332.141205,119.712898 338.525330,97.552582 353.722595,88.142609 
	C373.524963,75.881218 398.504883,83.667793 407.927673,104.931473 
	C408.050171,105.207901 407.942963,105.586121 407.942963,106.380981 
	C402.029419,109.523537 395.943909,112.757462 389.174133,115.893173 
	C386.658722,113.193535 384.827606,110.592117 383.019226,107.608879 
	C381.833557,104.712402 380.625183,102.197746 379.269257,99.375999 
	C370.797058,103.937309 362.885315,108.196877 354.215546,112.864571 
	C356.238342,115.449280 358.097565,117.824997 359.939880,120.589340 
	C360.803406,124.405952 358.293640,125.636757 355.990509,126.921539 
	C351.684570,129.323532 347.336609,131.650131 342.704468,134.000946 
	C342.000702,133.984985 341.598633,133.976196 341.196533,133.967407 
z"/>
<path fill="#FAFCFD" opacity="1.000000" stroke="none" 
	d="
M512.079834,111.972641 
	C521.566040,111.984093 531.069153,112.354729 540.533813,111.908768 
	C550.555176,111.436577 561.170288,120.847191 561.994019,129.255569 
	C563.245239,142.027710 556.773010,151.474228 544.083984,152.800034 
	C533.692993,153.885757 523.084961,153.300949 512.597534,152.867111 
	C508.021118,152.677795 504.880676,148.330429 505.712402,143.940704 
	C506.487396,139.850235 509.411774,137.858505 513.864075,137.947968 
	C522.681274,138.125122 531.516052,138.243057 540.316895,137.824677 
	C542.431946,137.724121 544.838684,135.756409 546.304932,133.981277 
	C546.885132,133.278870 545.614014,130.471985 544.529724,129.169617 
	C543.790894,128.282211 541.917358,128.046097 540.544678,128.028549 
	C532.890198,127.930641 525.230957,128.113022 517.579407,127.935806 
	C514.178101,127.857033 510.791107,127.160217 507.165283,126.025490 
	C504.070618,118.373352 505.461151,114.770760 512.079834,111.972641 
z"/>
<path fill="#FDFEFE" opacity="1.000000" stroke="none" 
	d="
M258.574341,45.090897 
	C259.331757,50.730511 260.161774,56.321793 259.855408,61.850094 
	C259.570160,66.997520 261.267517,68.858955 266.607361,68.447960 
	C266.941254,77.909706 266.876770,86.939224 266.360931,95.980217 
	C261.612549,96.313873 257.315521,96.636063 252.562347,96.957306 
	C249.061005,96.978531 246.015793,97.000694 242.970566,97.022858 
	C242.970566,97.022858 242.978882,97.003006 242.945099,96.771667 
	C242.746338,96.255241 242.506012,96.065742 242.190292,95.971825 
	C242.208298,79.799355 242.226288,63.626888 242.861740,47.226982 
	C243.651031,47.001987 243.822861,47.004436 244.050446,47.143784 
	C244.192398,47.328976 244.278580,47.377270 244.364761,47.425560 
	C244.245483,47.281910 244.126205,47.138260 244.000702,46.727058 
	C243.979797,46.281700 243.965149,46.103889 243.950485,45.926075 
	C243.950485,45.926075 243.981598,46.004295 244.350647,46.035828 
	C247.565323,46.544464 250.607605,48.829777 253.002960,45.166531 
	C254.718994,45.116047 256.435028,45.065563 258.574341,45.090897 
z"/>
<path fill="#FDFEFE" opacity="1.000000" stroke="none" 
	d="
M267.104797,131.961624 
	C263.685852,132.904526 259.137543,132.852966 257.176636,135.079788 
	C255.343704,137.161270 256.291138,141.663528 255.948334,145.093704 
	C255.685608,147.722656 255.319336,150.341248 254.998428,153.399048 
	C242.000366,154.508453 241.996429,154.508453 241.999390,141.927094 
	C242.002136,130.265839 242.014557,118.604576 242.313538,106.380844 
	C242.882935,105.623772 243.017441,105.356621 243.007889,105.016930 
	C243.007889,105.016930 242.989563,105.006439 243.417572,105.051567 
	C245.303253,105.254463 246.765457,105.579720 248.217850,105.540688 
	C254.160812,105.380981 260.100800,105.110100 266.265411,104.967804 
	C266.488953,105.055458 266.928009,105.250061 266.930115,105.702530 
	C266.971069,111.804565 267.009949,117.454147 267.026245,123.444290 
	C267.037354,126.510445 267.071075,129.236038 267.104797,131.961624 
z"/>
<path fill="#CACFD6" opacity="1.000000" stroke="none" 
	d="
M494.945679,116.106720 
	C487.738342,99.839180 501.772522,86.048813 515.180725,86.885727 
	C523.123535,87.381493 531.122070,86.983437 539.645508,87.213684 
	C540.456116,87.348572 540.716736,87.257072 540.977417,87.165588 
	C547.473938,89.390434 549.854675,92.044762 548.941956,96.505051 
	C548.418213,99.064789 547.426025,101.062485 543.838135,100.577812 
	C541.587524,100.273788 539.134705,101.466850 536.053650,101.650299 
	C528.898926,101.493896 522.463135,101.675438 516.027344,101.856979 
	C508.952209,102.497360 507.004852,104.805878 508.677917,110.558205 
	C503.872284,112.670685 499.408966,114.388702 494.945679,116.106720 
z"/>
<path fill="#CAD2DB" opacity="1.000000" stroke="none" 
	d="
M343.006134,134.008087 
	C347.336609,131.650131 351.684570,129.323532 355.990509,126.921539 
	C358.293640,125.636757 360.803406,124.405952 360.250793,120.445076 
	C362.053040,118.993523 363.527466,118.074852 365.009094,117.516251 
	C367.352875,120.276894 369.689423,122.677490 372.025970,125.078079 
	C369.414459,126.574219 366.802917,128.070358 364.183990,129.570724 
	C365.577545,137.133652 367.317230,138.078293 373.809937,134.607285 
	C376.363007,133.242401 378.800537,131.661392 381.757019,130.367966 
	C383.223663,131.575287 384.096832,132.775253 385.246735,133.579529 
	C389.779144,136.749619 394.961121,139.102448 398.057281,144.030685 
	C391.495453,150.084717 383.490906,152.775620 374.636841,153.692047 
	C375.007629,153.142685 375.592621,152.886871 376.665802,152.417587 
	C371.479767,148.412567 366.388733,144.809128 361.681213,140.759857 
	C356.178741,136.026794 350.866211,131.375381 342.900818,135.054916 
	C342.900818,135.054916 342.974152,135.011505 342.981262,134.781006 
	C342.994293,134.369705 343.000214,134.188889 343.006134,134.008087 
z"/>
<path fill="#D4E2ED" opacity="1.000000" stroke="none" 
	d="
M342.967865,135.410080 
	C350.866211,131.375381 356.178741,136.026794 361.681213,140.759857 
	C366.388733,144.809128 371.479767,148.412567 376.665802,152.417587 
	C375.592621,152.886871 375.007629,153.142685 374.229889,153.607880 
	C373.265198,153.863998 372.493286,153.910751 371.105469,153.653198 
	C369.624023,153.251434 368.758453,153.153976 367.892883,153.056519 
	C357.049164,150.969757 348.070038,146.202454 342.967865,135.410080 
z"/>
<path fill="#D6E4EF" opacity="1.000000" stroke="none" 
	d="
M398.366272,143.902191 
	C394.961121,139.102448 389.779144,136.749619 385.246735,133.579529 
	C384.096832,132.775253 383.223663,131.575287 382.088257,130.236664 
	C384.714508,128.617722 387.475861,127.319237 390.678467,126.410492 
	C395.448303,130.211136 399.776917,133.622025 404.105530,137.032928 
	C402.295441,139.279846 400.485352,141.526779 398.366272,143.902191 
z"/>
<path fill="#D1DDE7" opacity="1.000000" stroke="none" 
	d="
M495.074707,116.424713 
	C499.408966,114.388702 503.872284,112.670685 508.750305,110.937088 
	C510.035187,111.072189 510.905334,111.222885 511.927673,111.673111 
	C505.461151,114.770760 504.070618,118.373352 506.957886,125.682770 
	C501.605164,124.788322 497.976257,121.306923 495.074707,116.424713 
z"/>
<path fill="#CAD0D9" opacity="1.000000" stroke="none" 
	d="
M382.996521,107.990692 
	C384.827606,110.592117 386.658722,113.193535 388.810303,115.936981 
	C386.705780,117.389526 384.280823,118.700043 381.181946,119.881302 
	C377.635132,117.815338 374.762238,115.878647 372.051575,113.620071 
	C375.808075,111.529022 379.402283,109.759850 382.996521,107.990692 
z"/>
<path fill="#C8D3DC" opacity="1.000000" stroke="none" 
	d="
M404.429382,136.873444 
	C399.776917,133.622025 395.448303,130.211136 391.054199,126.471725 
	C394.037292,126.088806 397.085846,126.034393 400.802368,126.295692 
	C402.637207,126.457108 403.804138,126.302826 404.971069,126.148537 
	C405.430206,126.094208 405.889374,126.039886 406.816040,126.271606 
	C407.522339,126.788475 407.800232,126.953293 408.117310,127.052094 
	C406.995941,130.272720 405.874573,133.493332 404.429382,136.873444 
z"/>
<path fill="#D3E4F0" opacity="1.000000" stroke="none" 
	d="
M371.889313,113.941948 
	C374.762238,115.878647 377.635132,117.815338 380.819702,119.898987 
	C378.340393,121.692848 375.549438,123.339760 372.392212,125.032379 
	C369.689423,122.677490 367.352875,120.276894 365.334045,117.369080 
	C367.730957,115.888550 369.810120,114.915245 371.889313,113.941948 
z"/>
<path fill="#C2CDD5" opacity="1.000000" stroke="none" 
	d="
M266.041870,104.880150 
	C260.100800,105.110100 254.160812,105.380981 248.217850,105.540688 
	C246.765457,105.579720 245.303253,105.254463 243.415009,105.041321 
	C242.988403,102.626144 242.992325,100.266357 242.983398,97.464706 
	C246.015793,97.000694 249.061005,96.978531 252.279129,97.253159 
	C250.660980,97.700806 248.801147,97.608200 247.102997,98.087906 
	C245.966583,98.408928 245.059814,99.542938 244.050293,100.313156 
	C244.930603,101.210884 245.750793,102.811493 246.700943,102.892761 
	C253.077972,103.438255 259.482635,103.660721 265.956299,104.204170 
	C266.034241,104.420441 266.041870,104.880150 266.041870,104.880150 
z"/>
<path fill="#D3DEEA" opacity="1.000000" stroke="none" 
	d="
M516.489868,101.922607 
	C522.463135,101.675438 528.898926,101.493896 535.647888,101.579109 
	C529.624878,101.893326 523.288635,101.940788 516.489868,101.922607 
z"/>
<path fill="#F9FAFB" opacity="1.000000" stroke="none" 
	d="
M252.567719,45.087975 
	C250.607605,48.829777 247.565323,46.544464 244.321564,46.005333 
	C246.659790,45.632008 249.396118,45.320709 252.567719,45.087975 
z"/>
<path fill="#D6E4EF" opacity="1.000000" stroke="none" 
	d="
M404.581116,126.081192 
	C403.804138,126.302826 402.637207,126.457108 401.253082,126.377228 
	C402.087646,126.099991 403.139404,126.056915 404.581116,126.081192 
z"/>
<path fill="#CAD2DB" opacity="1.000000" stroke="none" 
	d="
M368.058990,153.366211 
	C368.758453,153.153976 369.624023,153.251434 370.725037,153.578201 
	C370.048676,153.763641 369.136902,153.719757 368.058990,153.366211 
z"/>
<path fill="#D6E4EF" opacity="1.000000" stroke="none" 
	d="
M408.387329,126.939850 
	C407.800232,126.953293 407.522339,126.788475 407.156189,126.349625 
	C407.571625,126.370277 408.114471,126.598946 408.387329,126.939850 
z"/>
<path fill="#D4E2ED" opacity="1.000000" stroke="none" 
	d="
M342.704468,134.000931 
	C343.000214,134.188889 342.994293,134.369705 342.967896,134.821457 
	C342.360779,134.924896 341.774109,134.757370 341.192017,134.278625 
	C341.598633,133.976196 342.000702,133.984985 342.704468,134.000931 
z"/>
<path fill="#D3E0E8" opacity="1.000000" stroke="none" 
	d="
M242.736511,105.050789 
	C243.017441,105.356621 242.882935,105.623772 242.395020,105.919846 
	C242.278839,105.709099 242.371979,105.396873 242.736511,105.050789 
z"/>
<path fill="#D3E0E8" opacity="1.000000" stroke="none" 
	d="
M242.140045,96.240433 
	C242.506012,96.065742 242.746338,96.255241 242.955688,96.770065 
	C242.696640,96.836212 242.393204,96.672623 242.140045,96.240433 
z"/>
<path fill="#D2DBE7" opacity="1.000000" stroke="none" 
	d="
M540.740479,87.095993 
	C540.716736,87.257072 540.456116,87.348572 540.109863,87.292648 
	C540.024231,87.145226 540.503601,87.026405 540.740479,87.095993 
z"/>
<path fill="#F9FAFB" opacity="1.000000" stroke="none" 
	d="
M243.994675,47.006886 
	C243.822861,47.004436 243.651031,47.001987 243.221481,46.992989 
	C243.119476,46.679543 243.275162,46.372643 243.690674,45.995911 
	C243.965149,46.103889 243.979797,46.281700 243.997223,46.729755 
	C244.000000,47.000000 243.994675,47.006886 243.994675,47.006886 
z"/>
<path fill="#000000" opacity="1.000000" stroke="none" 
	d="
M81.772568,107.263504 
	C77.314163,104.817093 73.200905,102.472023 68.915161,100.502205 
	C65.731789,99.039062 65.306725,97.249168 66.911713,94.281013 
	C70.394073,87.840958 73.643448,81.275375 77.059784,74.798935 
	C78.401237,72.255913 80.163818,71.327690 83.088837,72.961113 
	C89.914215,76.772598 96.845406,80.403389 103.828438,83.919289 
	C106.475739,85.252190 106.465958,86.988777 105.321861,89.133621 
	C101.878181,95.589554 98.197884,101.926460 94.966347,108.485428 
	C93.259109,111.950562 91.416725,112.763252 88.133728,110.648468 
	C86.225182,109.419044 84.081535,108.554581 81.772568,107.263504 
z"/>
<path fill="#000000" opacity="1.000000" stroke="none" 
	d="
M30.111099,38.112434 
	C32.017902,37.093292 34.108181,36.268948 36.198456,35.444603 
	C36.353775,35.903767 36.509098,36.362930 36.664417,36.822090 
	C34.870235,37.286072 33.076057,37.750053 30.992485,38.433502 
	C30.566919,38.537724 30.430746,38.422474 30.111099,38.112434 
z"/>
<path fill="#000000" opacity="1.000000" stroke="none" 
	d="
M266.265411,104.967804 
	C266.041870,104.880150 266.034241,104.420441 266.018921,103.786575 
	C266.273132,100.758064 266.542694,98.363411 266.812256,95.968750 
	C266.876770,86.939224 266.941254,77.909706 267.060181,68.459633 
	C268.663239,67.692307 270.206848,67.075462 271.761475,67.046341 
	C277.903046,66.931297 284.048065,67.000793 290.191803,67.001419 
	C299.433807,67.002365 304.000641,71.555550 304.007355,80.815689 
	C304.016785,93.768005 304.017334,106.720345 303.999756,119.672646 
	C303.988708,127.833260 298.820190,132.597214 290.492584,132.374008 
	C283.004944,132.173355 275.512421,132.153503 267.563416,132.007751 
	C267.071075,129.236038 267.037354,126.510445 267.394806,123.206451 
	C267.500000,116.835381 267.213989,111.042725 266.928009,105.250061 
	C266.928009,105.250061 266.488953,105.055458 266.265411,104.967804 
z"/>
<path fill="#000000" opacity="1.000000" stroke="none" 
	d="
M194.999695,117.223907 
	C194.961319,127.528610 189.747269,132.150803 178.813751,132.000000 
	C172.015503,131.906235 165.445053,124.993233 166.085327,117.941238 
	C166.711502,111.044518 170.898132,105.807190 177.267761,105.075127 
	C187.665100,103.880135 193.365402,107.850006 194.999695,117.223907 
z"/>
<path fill="#000000" opacity="1.000000" stroke="none" 
	d="
M372.051575,113.620071 
	C369.810120,114.915245 367.730957,115.888550 365.326813,117.009018 
	C363.527466,118.074852 362.053040,118.993523 360.267700,120.056442 
	C358.097565,117.824997 356.238342,115.449280 354.215546,112.864571 
	C362.885315,108.196877 370.797058,103.937309 379.269257,99.375999 
	C380.625183,102.197746 381.833557,104.712402 383.019226,107.608871 
	C379.402283,109.759850 375.808075,111.529022 372.051575,113.620071 
z"/>
<path fill="#D3E0E8" opacity="1.000000" stroke="none" 
	d="
M266.360962,95.980217 
	C266.542694,98.363411 266.273132,100.758064 265.940979,103.570312 
	C259.482635,103.660721 253.077972,103.438255 246.700943,102.892761 
	C245.750793,102.811493 244.930603,101.210884 244.050293,100.313156 
	C245.059814,99.542938 245.966583,98.408928 247.102997,98.087906 
	C248.801147,97.608200 250.660980,97.700806 252.735245,97.254105 
	C257.315521,96.636063 261.612549,96.313873 266.360962,95.980217 
z"/>
<path fill="#F9FAFB" opacity="1.000000" stroke="none" 
	d="
M244.003464,46.997307 
	C244.126205,47.138260 244.245483,47.281910 244.364761,47.425560 
	C244.278580,47.377270 244.192398,47.328976 244.050446,47.143784 
	C243.994675,47.006886 244.000000,47.000000 244.003464,46.997307 
z"/>
<path fill="#D3E0E8" opacity="1.000000" stroke="none" 
	d="
M266.930115,105.702530 
	C267.213989,111.042725 267.500000,116.835381 267.417419,122.865883 
	C267.009949,117.454147 266.971069,111.804565 266.930115,105.702530 
z"/>
</svg>